<svg version="1.1" xmlns="http://www.w3.org/2000/svg" xmlns:xlink="http://www.w3.org/1999/xlink" class="svg-canvas"
	height="230" width="500">
	<g transform="translate(-150,-180)"><g transform="translate(160,199.88726189038) rotate(0,106.84074470301,100.11273810962) scale(1,1)">
		<g>
			<g width="213.68148940602" height="200.22547621924">

				<path d="M198.4,47.6c-6.5-11.5-15.2-21.3-25.4-29c0.2-0.6,0.4-1.3,0.4-2c0-2.9-2.4-5.3-5.3-5.3c-1.4,0-2.7,0.6-3.7,1.5
	C150.3,4.6,134.1,0,117.2,0C95.4,0,75.4,7.5,59.5,20.1c-1-0.6-2.2-1-3.4-1c-3.5,0-6.4,2.9-6.4,6.4c0,1,0.3,2,0.7,2.9
	C38.3,40.9,29.6,56.8,26,74.5L21.8,87L0,92.7l21.8,5.7l3.9,11.7c3.4,18.3,12.2,34.7,24.6,47.6c-0.4,0.9-0.7,1.8-0.7,2.9
	c0,3.5,2.9,6.4,6.4,6.4c1.3,0,2.4-0.4,3.4-1c15.9,12.6,35.9,20.1,57.7,20.1c16.7,0,32.8-4.4,47.1-12.8c1,1,2.3,1.6,3.8,1.6
	c2.9,0,5.3-2.4,5.3-5.3c0-2.9-2.4-5.3-5.3-5.3c-2.9,0-5.3,2.4-5.3,5.3c0,0.5,0.1,1.1,0.2,1.6c-13.9,8.1-29.6,12.4-45.8,12.4
	c-21.1,0-40.5-7.2-55.9-19.3c0.7-1,1.2-2.3,1.2-3.7c0-3.5-2.9-6.4-6.4-6.4c-1.6,0-3.1,0.6-4.2,1.6c-10.4-10.8-18.1-24.1-22.1-39
	l3.4-18.3l21.7-5.6c0,0.1,0,0.2,0,0.3c0,15.5,5.7,29.7,15.2,40.7c-0.5,0.8-0.8,1.7-0.8,2.7c0,2.9,2.3,5.2,5.2,5.2c1,0,2-0.3,2.8-0.8
	c10.3,8.6,23.4,14,37.8,14.5c0.5,1.4,1.8,2.5,3.4,2.5c1.6,0,3-1.1,3.4-2.6c14-1,27.2-6.7,37.6-16.3c0.5-0.5,0.5-1.2,0.1-1.7
	c-0.5-0.5-1.2-0.5-1.7-0.1c-10,9.2-22.6,14.7-36.1,15.7c-0.6-1.3-1.8-2.1-3.3-2.1c-1.5,0-2.8,0.9-3.3,2.3
	c-13.7-0.5-26.2-5.6-36.1-13.8c0.5-0.8,0.7-1.7,0.7-2.6c0-2.9-2.3-5.2-5.2-5.2c-1,0-1.9,0.3-2.7,0.8c-9-10.5-14.4-24.1-14.4-38.9
	c0-14.9,5.5-28.4,14.4-38.9c0.8,0.5,1.7,0.8,2.7,0.8c2.9,0,5.2-2.3,5.2-5.2c0-1-0.3-1.9-0.7-2.6c9.9-8.2,22.4-13.3,36.1-13.8
	c0.5,1.3,1.8,2.3,3.4,2.3c1.5,0,2.8-0.9,3.3-2.2c13.5,1,26.1,6.5,36.1,15.7c0.5,0.5,1.3,0.4,1.7-0.1c0.5-0.5,0.4-1.3-0.1-1.7
	c-10.4-9.6-23.6-15.3-37.7-16.4c-0.5-1.5-1.8-2.6-3.4-2.6c-1.6,0-2.9,1-3.4,2.4c-14.3,0.5-27.5,5.8-37.8,14.5
	c-0.8-0.5-1.8-0.8-2.8-0.8c-2.9,0-5.2,2.3-5.2,5.2c0,1,0.3,1.9,0.8,2.7C60.7,63.2,55,77.3,54.9,92.7L33.2,87l-3.3-17.9
	c4-14.8,11.7-28,22.1-38.8c1.1,1,2.6,1.6,4.2,1.6c3.5,0,6.4-2.9,6.4-6.4c0-1.4-0.4-2.6-1.2-3.7C76.7,9.7,96.1,2.5,117.2,2.5
	c16.4,0,32.2,4.5,45.8,12.5c-0.2,0.5-0.3,1.1-0.3,1.7c0,2.9,2.4,5.3,5.3,5.3c1.3,0,2.6-0.5,3.5-1.3c9.9,7.5,18.4,17,24.7,28.2
	c0.3,0.6,1.1,0.8,1.7,0.5C198.5,48.9,198.7,48.2,198.4,47.6z" fill="#1B1B1B">
				</path>

			</g>
		</g>
	</g>
	<g transform="translate(172.64182836587,3.3901799170200206) rotate(0,274.19,288.76) scale(1,1)" filter="">
		<g><svg xmlns="http://www.w3.org/2000/svg" version="1.1" xmlns:xlink="http://www.w3.org/1999/xlink"
				width="708.76" height="577.52">
				<g transform="translate(80.19, 0)">
					<path
						d="M39.21-58.38L49.08-47.23L44.18-0.80L32.00 10.26L0 10.26L0.72 2.81L0.80 2.81L6.58-52.93L7.14-58.38L39.21-58.38ZM36.57-2.81L41.06-45.31L36.09-50.84L14.19-50.84L8.66 2.81L30.47 2.81L36.57-2.81Z"
						transform="translate(0 320.76) " fill="#1b1b1b" stroke="#1b1b1b" stroke-width="0.134"></path>
					<path
						d="M53.09 10.26L45.23 10.26L41.86-6.82L14.84-6.82L7.86 10.26L0 10.26L27.99-58.38L39.53-58.38L53.09 10.26ZM33.04-51.48L17.88-14.35L40.34-14.35L33.04-51.48Z"
						transform="translate(53.40654 320.76) " fill="#1b1b1b" stroke="#1b1b1b" stroke-width="0.134">
					</path>
					<path stroke-width="0.134" stroke="#1b1b1b" fill="#1b1b1b" transform="translate(112.90752 320.76) "
						d="M7.22-58.38L48.76-58.38L41.54 10.26L0 10.26L6.42-50.84L7.22-58.38ZM14.27-50.84L8.66 2.81L34.48 2.81L40.09-50.84L14.27-50.84Z">
					</path>
					<path d="M15.08-58.38L8.66 2.81L42.26 2.81L39.53 10.26L0 10.26L7.22-58.38L15.08-58.38Z"
						transform="translate(165.59235 320.76) " fill="#1b1b1b" stroke="#1b1b1b" stroke-width="0.134">
					</path>
					<path
						d="M53.09 10.26L45.23 10.26L41.86-6.82L14.84-6.82L7.86 10.26L0 10.26L27.99-58.38L39.53-58.38L53.09 10.26ZM33.04-51.48L17.88-14.35L40.34-14.35L33.04-51.48Z"
						transform="translate(218.19699 320.76) " fill="#1b1b1b" stroke="#1b1b1b" stroke-width="0.134">
					</path>
					<path
						d="M42.18-2.89L48.03-58.38L55.89-58.38L48.68 10.26L39.69 10.26L13.87-47.23L7.86 10.26L0 10.26L7.14-58.38L17.24-58.38L42.18-2.89Z"
						transform="translate(277.69797 320.76) " fill="#1b1b1b" stroke="#1b1b1b" stroke-width="0.134">
					</path>
					<path
						d="M26.86-28.63L45.63-28.63L41.54 10.26L0 10.26L0.72 2.81L0.80 2.81L6.42-50.84L7.22-58.38L47.71-58.38L44.91-50.84L14.27-50.84L8.66 2.81L34.48 2.81L36.97-21.09L28.07-21.09L26.86-28.63Z"
						transform="translate(333.91116 320.76) " fill="#1b1b1b" stroke="#1b1b1b" stroke-width="0.134">
					</path>
				</g>
			</svg></g>
	</g></g>
</svg>
